<?xml version="1.0" encoding="UTF-8" standalone="no"?>
<!-- Created with Inkscape (http://www.inkscape.org/) -->

<svg
   width="34.640999mm"
   height="34.640999mm"
   viewBox="0 0 34.640999 34.640999"
   version="1.1"
   id="svg5"
   inkscape:version="1.1.1 (c3084ef, 2021-09-22)"
   sodipodi:docname="ok.svg"
   xmlns:inkscape="http://www.inkscape.org/namespaces/inkscape"
   xmlns:sodipodi="http://sodipodi.sourceforge.net/DTD/sodipodi-0.dtd"
   xmlns="http://www.w3.org/2000/svg"
   xmlns:svg="http://www.w3.org/2000/svg">
  <sodipodi:namedview
     id="namedview7"
     pagecolor="#ffffff"
     bordercolor="#666666"
     borderopacity="1.0"
     inkscape:pageshadow="2"
     inkscape:pageopacity="0.0"
     inkscape:pagecheckerboard="0"
     inkscape:document-units="mm"
     showgrid="false"
     showguides="false"
     inkscape:zoom="3.1426747"
     inkscape:cx="64.912859"
     inkscape:cy="97.528389"
     inkscape:window-width="1312"
     inkscape:window-height="1081"
     inkscape:window-x="1123"
     inkscape:window-y="170"
     inkscape:window-maximized="0"
     inkscape:current-layer="g2001"
     width="34.641mm" />
  <defs
     id="defs2">
    <clipPath
       clipPathUnits="userSpaceOnUse"
       id="clipPath4360">
      <circle
         style="opacity:1;fill:#28170b;fill-opacity:1;stroke:none;stroke-width:0.509548;stroke-opacity:1"
         id="circle4362"
         cx="125"
         cy="125"
         r="43.073406" />
    </clipPath>
    <clipPath
       clipPathUnits="userSpaceOnUse"
       id="clipPath3186">
      <circle
         style="fill:#ffffff;fill-opacity:1;stroke-width:3.13865"
         id="circle3188"
         cx="415.74994"
         cy="415.74994"
         r="65.463303" />
    </clipPath>
    <clipPath
       clipPathUnits="userSpaceOnUse"
       id="clipPath3190">
      <circle
         style="fill:#ffffff;fill-opacity:1;stroke-width:3.13865"
         id="circle3192"
         cx="415.74994"
         cy="415.74994"
         r="65.463303" />
    </clipPath>
    <clipPath
       clipPathUnits="userSpaceOnUse"
       id="clipPath3194">
      <circle
         style="fill:#ffffff;fill-opacity:1;stroke-width:0.830434"
         id="circle3196"
         cx="110.0005"
         cy="110.0005"
         r="17.320499" />
    </clipPath>
    <clipPath
       clipPathUnits="userSpaceOnUse"
       id="clipPath3198">
      <circle
         style="fill:#ffffff;fill-opacity:1;stroke-width:0.830434"
         id="circle3200"
         cx="110.0005"
         cy="110.0005"
         r="17.320499" />
    </clipPath>
    <clipPath
       clipPathUnits="userSpaceOnUse"
       id="clipPath3202">
      <circle
         style="fill:#ffffff;fill-opacity:1;stroke-width:0.830434"
         id="circle3204"
         cx="110.0005"
         cy="110.0005"
         r="17.320499" />
    </clipPath>
    <clipPath
       clipPathUnits="userSpaceOnUse"
       id="clipPath3206">
      <circle
         style="fill:#ffffff;fill-opacity:1;stroke-width:0.830434"
         id="circle3208"
         cx="110.0005"
         cy="110.0005"
         r="17.320499" />
    </clipPath>
  </defs>
  <g
     inkscape:groupmode="layer"
     id="g2001"
     inkscape:label="New copy"
     style="display:inline">
    <g
       id="g3338">
      <circle
         style="fill:#139af6;fill-opacity:1;stroke-width:0.101898"
         id="circle1989"
         cx="120"
         cy="110"
         r="10"
         clip-path="url(#clipPath3206)"
         transform="translate(-92.680007,-92.680005)" />
      <circle
         style="display:inline;fill:#4eca25;fill-opacity:1;stroke-width:0.101898"
         id="circle1991"
         cx="115"
         cy="118.66025"
         r="10"
         clip-path="url(#clipPath3202)"
         transform="translate(-92.680007,-92.680005)" />
      <circle
         style="display:inline;fill:#ffd003;fill-opacity:1;stroke-width:0.101898"
         id="circle1993"
         cx="105"
         cy="118.66025"
         r="10"
         clip-path="url(#clipPath3198)"
         transform="translate(-92.680007,-92.680005)" />
      <circle
         style="display:inline;fill:#ffa44e;fill-opacity:1;stroke-width:0.101898"
         id="circle1999"
         cx="100"
         cy="110"
         r="10"
         clip-path="url(#clipPath3194)"
         transform="translate(-92.680007,-92.680005)" />
      <path
         id="circle1995"
         style="display:inline;fill:#fe574e;fill-opacity:1;stroke-width:0.385126"
         d="m 396.84961,345.22266 a 37.795276,37.795276 0 0 0 -37.79492,37.79492 37.795276,37.795276 0 0 0 37.79492,37.79492 37.795276,37.795276 0 0 0 18.89844,-5.06445 37.795276,37.795276 0 0 1 -18.89844,-32.73047 37.795276,37.795276 0 0 1 18.89453,-32.73047 37.795276,37.795276 0 0 0 -18.89453,-5.06445 z"
         transform="matrix(0.26458334,0,0,0.26458333,-92.680007,-92.680005)"
         clip-path="url(#clipPath3190)" />
      <path
         id="circle1997"
         style="display:inline;fill:#ba59d1;fill-opacity:1;stroke-width:0.385126"
         d="m 434.64648,345.22266 a 37.795276,37.795276 0 0 0 -37.79687,37.79492 37.795276,37.795276 0 0 0 18.89844,32.73047 37.795276,37.795276 0 0 1 37.79492,-37.79493 37.795276,37.795276 0 0 1 18.89844,5.06641 37.795276,37.795276 0 0 0 0,-0.002 37.795276,37.795276 0 0 0 -37.79493,-37.79492 z"
         transform="matrix(0.26458334,0,0,0.26458333,-92.680007,-92.680005)"
         clip-path="url(#clipPath3186)" />
    </g>
  </g>
</svg>
